<svg xmlns="http://www.w3.org/2000/svg" viewBox="0 0 1280 420" role="img" aria-label="SkillGrid — Copilot skills harness">
  <defs>
    <linearGradient id="bg" x1="0%" y1="0%" x2="100%" y2="100%">
      <stop offset="0%" stop-color="#061418"/>
      <stop offset="55%" stop-color="#0B2A2E"/>
      <stop offset="100%" stop-color="#12484A"/>
    </linearGradient>
    <linearGradient id="glow" x1="0%" y1="50%" x2="100%" y2="50%">
      <stop offset="0%" stop-color="#7CFF4A" stop-opacity="0"/>
      <stop offset="50%" stop-color="#7CFF4A" stop-opacity="0.22"/>
      <stop offset="100%" stop-color="#2F8F8C" stop-opacity="0"/>
    </linearGradient>
    <pattern id="grid" width="40" height="40" patternUnits="userSpaceOnUse">
      <path d="M40 0H0V40" fill="none" stroke="#E6EEF2" stroke-opacity="0.05" stroke-width="1"/>
    </pattern>
  </defs>

  <rect width="1280" height="420" fill="url(#bg)"/>
  <rect width="1280" height="420" fill="url(#grid)"/>
  <ellipse cx="1000" cy="210" rx="380" ry="160" fill="url(#glow)"/>

  <!-- Mark -->
  <g transform="translate(88,118) scale(1.45)">
    <g fill="none" stroke="#1A4A4E" stroke-width="7" stroke-linecap="round">
      <path d="M32 32v64M64 32v64M96 32v32"/>
      <path d="M32 32h64M32 64h64M32 96h32"/>
    </g>
    <g fill="none" stroke="#7CFF4A" stroke-width="7" stroke-linecap="round" stroke-linejoin="round">
      <path d="M32 32h64v32H32v32h32"/>
    </g>
    <circle cx="32" cy="96" r="9" fill="#0B2A2E"/>
    <circle cx="96" cy="32" r="9" fill="#0B2A2E"/>
    <circle cx="96" cy="64" r="9" fill="#0B2A2E"/>
    <circle cx="64" cy="96" r="9" fill="#0B2A2E"/>
    <circle cx="96" cy="96" r="9" fill="#0B2A2E"/>
    <circle cx="32" cy="32" r="11" fill="#7CFF4A"/>
    <circle cx="64" cy="32" r="11" fill="#7CFF4A"/>
    <circle cx="32" cy="64" r="11" fill="#7CFF4A"/>
    <circle cx="64" cy="64" r="11" fill="#7CFF4A"/>
  </g>

  <text x="340" y="188" font-family="Segoe UI, Helvetica Neue, Arial, sans-serif" font-size="84" font-weight="700" letter-spacing="-1.5">
    <tspan fill="#E8F2F2">Skill</tspan><tspan fill="#2F8F8C">Grid</tspan>
  </text>
  <text x="344" y="238" font-family="Segoe UI, Helvetica Neue, Arial, sans-serif" font-size="28" font-weight="500" fill="#8BA3B5">Copilot skills harness</text>
  <text x="344" y="292" font-family="Segoe UI, Helvetica Neue, Arial, sans-serif" font-size="22" fill="#7CFF4A">Structure · Prove · Upgrade at AI pace</text>

  <rect x="0" y="408" width="1280" height="12" fill="#7CFF4A"/>
</svg>
