<svg xmlns="http://www.w3.org/2000/svg" viewBox="0 0 128 128" role="img" aria-label="SkillsForge">
  <!-- Hammer (charcoal) -->
  <g fill="#3D3D3D">
    <path d="M22 18h28c3 0 5 2 5 5v10c0 2-1 4-3 5l-8 4v4H33v-4l-8-4c-2-1-3-3-3-5V23c0-3 2-5 5-5z"/>
    <rect x="40" y="42" width="10" height="68" rx="3"/>
    <path d="M22 23h10v14H18c0-4 1-8 4-14z" opacity="0.9"/>
  </g>
  <!-- 3x3 grid -->
  <g stroke="#1B3A6B" stroke-width="4" fill="none">
    <circle cx="72" cy="40" r="9"/>
    <circle cx="96" cy="40" r="9"/>
    <circle cx="72" cy="64" r="9"/>
    <circle cx="96" cy="64" r="9"/>
    <circle cx="72" cy="88" r="9"/>
    <circle cx="96" cy="88" r="9"/>
  </g>
  <!-- Left column / solids peeking by hammer -->
  <circle cx="52" cy="40" r="9" fill="#1B3A6B"/>
  <circle cx="52" cy="64" r="9" fill="#3D3D3D"/>
  <circle cx="52" cy="88" r="9" fill="#1B3A6B"/>
  <circle cx="72" cy="40" r="9" fill="#3D3D3D"/>
</svg>
